. 
 
http://www.torrenting.com          :     Once & For all ;)


               www . Torrenting . Com 

(((((((((((((= Enjoy No RAR releases =))))))))))))))))))))


...................................NFO:....................................

.








































          
          
              
              
                    
                    
                    
                    

Burn.Witch.Burn.1962.DVDRiP.XviD-SiC

Poster:
[img]http://img403.imageshack.us/img403/3894/burnwitchburnposter01.jpg[/img]

IMDB Link: 
http://www.imdb.com/title/tt0056279/

Description: A skeptical college professor discovers that his wife has been practicing magic for years. Like the learned, rational fellow he is, he forces her to destroy all her magical charms and protective devices, and stop that foolishness. He isn't put off by her insistence that his professional rivals are working magic against him, and her protections are necessary to his career and life.





General
Complete name                    : Burn.Witch.Burn.1962.DVDRiP.XviD-SiC.avi
Format                           : AVI
Format/Info                      : Audio Video Interleave
File size                        : 1.37 GiB
Duration                         : 1h 29mn
Overall bit rate                 : 2 184 Kbps

Video
ID                               : 0
Format                           : MPEG-4 Visual
Format profile                   : Simple@L3
Format settings, BVOP            : 2
Format settings, QPel            : No
Format settings, GMC             : No warppoints
Format settings, Matrix          : Default (H.263)
Muxing mode                      : Packed bitstream
Codec ID                         : XVID
Codec ID/Hint                    : XviD
Duration                         : 1h 29mn
Bit rate                         : 1 984 Kbps
Width                            : 720 pixels
Height                           : 384 pixels
Display aspect ratio             : 1.875
Frame rate                       : 23.976 fps
Color space                      : YUV
Chroma subsampling               : 4:2:0
Bit depth                        : 8 bits
Scan type                        : Progressive
Compression mode                 : Lossy
Bits/(Pixel*Frame)               : 0.299
Stream size                      : 1.24 GiB (91%)
Writing library                  : XviD 1.0.3 (UTC 2004-12-20)

Audio
ID                               : 1
Format                           : AC-3
Format/Info                      : Audio Coding 3
Mode extension                   : CM (complete main)
Codec ID                         : 2000
Duration                         : 1h 29mn
Bit rate mode                    : Constant
Bit rate                         : 192 Kbps
Channel(s)                       : 2 channels
Channel positions                : Front: L R
Sampling rate                    : 48.0 KHz
Bit depth                        : 16 bits
Compression mode                 : Lossy
Stream size                      : 123 MiB (9%)
Alignment                        : Aligned on interleaves
Interleave, duration             : 64 ms (1.53 video frames)
Interleave, preload duration     : 192 ms
Title                            : VTS_01_1 T80 2_0ch 192Kbps DELAY 0ms

























Screenshots:
[img]http://img831.imageshack.us/img831/8247/vlcsnap2012013008h39m02.png[/img]
[img]http://img854.imageshack.us/img854/5637/vlcsnap2012013008h39m05.png[/img]
[img]http://img442.imageshack.us/img442/7597/vlcsnap2012013008h39m08.png[/img]
[img]http://img193.imageshack.us/img193/9284/vlcsnap2012013008h39m12.png[/img]




Note :  

Source: Friend of a friend. 

Enjoy!

Respects to T00NG0D, CM8, Rx, ELEKTRI4KA, PA, YeFsTe, MrRep and everyone in the struggle...